<svg width="48" height="22" viewBox="0 0 48 22" fill="none" xmlns="http://www.w3.org/2000/svg">
<path d="M17.6348 14.6973C17.4668 14.8301 17.3398 14.9512 17.2539 15.0605C17.168 15.1738 17.0938 15.2695 17.0312 15.3477C16.9688 15.4297 16.9043 15.4922 16.8379 15.5352C16.7715 15.582 16.6719 15.6055 16.5391 15.6055C16.4062 15.6055 16.2344 15.5703 16.0234 15.5C15.8164 15.4336 15.5938 15.3242 15.3555 15.1719C15.1211 15.0234 14.8848 14.8301 14.6465 14.5918C14.4082 14.3535 14.1914 14.0645 13.9961 13.7246C13.8047 13.3848 13.6484 12.9902 13.5273 12.541C13.4062 12.0918 13.3457 11.582 13.3457 11.0117C13.3457 10.1953 13.4609 9.43945 13.6914 8.74414C13.9258 8.04492 14.252 7.41211 14.6699 6.8457C15.0918 6.27539 15.5938 5.77344 16.1758 5.33984C16.7617 4.90625 17.4062 4.54883 18.1094 4.26758C17.5625 4.49805 17.0879 4.76953 16.6855 5.08203C16.2832 5.39062 15.9375 5.72266 15.6484 6.07812C15.3594 6.42969 15.123 6.79297 14.9395 7.16797C14.7559 7.53906 14.6094 7.90039 14.5 8.25195C14.3945 8.59961 14.3184 8.92773 14.2715 9.23633C14.2285 9.54102 14.2051 9.80469 14.2012 10.0273C14.1895 10.3945 14.2168 10.7656 14.2832 11.1406C14.3496 11.5156 14.4492 11.877 14.582 12.2246C14.7148 12.5684 14.8809 12.8906 15.0801 13.1914C15.2793 13.4922 15.5078 13.7539 15.7656 13.9766C16.0234 14.1992 16.3086 14.375 16.6211 14.5039C16.9336 14.6328 17.2715 14.6973 17.6348 14.6973ZM26.8047 5.18164C26.9727 5.04883 27.0996 4.92773 27.1855 4.81836C27.2715 4.70508 27.3457 4.60742 27.4082 4.52539C27.4707 4.44336 27.5352 4.38086 27.6016 4.33789C27.668 4.29102 27.7676 4.26758 27.9004 4.26758C28.0332 4.26758 28.2031 4.30273 28.4102 4.37305C28.6211 4.43945 28.8438 4.54883 29.0781 4.70117C29.3164 4.84961 29.5547 5.04492 29.793 5.28711C30.0312 5.52539 30.2461 5.81445 30.4375 6.1543C30.6328 6.49414 30.791 6.88867 30.9121 7.33789C31.0332 7.7832 31.0938 8.29102 31.0938 8.86133C31.0938 9.67773 30.9766 10.4355 30.7422 11.1348C30.5117 11.834 30.1855 12.4688 29.7637 13.0391C29.3457 13.6055 28.8438 14.1035 28.2578 14.5332C27.6758 14.9668 27.0332 15.3242 26.3301 15.6055C26.877 15.3789 27.3516 15.1094 27.7539 14.7969C28.1562 14.4844 28.502 14.1523 28.791 13.8008C29.0801 13.4492 29.3164 13.0879 29.5 12.7168C29.6836 12.3418 29.8281 11.9805 29.9336 11.6328C30.043 11.2812 30.1191 10.9512 30.1621 10.6426C30.2051 10.334 30.2305 10.0684 30.2383 9.8457C30.2461 9.47852 30.2168 9.10938 30.1504 8.73828C30.0879 8.36328 29.9902 8.00391 29.8574 7.66016C29.7246 7.3125 29.5586 6.98828 29.3594 6.6875C29.1602 6.38672 28.9316 6.125 28.6738 5.90234C28.416 5.67969 28.1309 5.50391 27.8184 5.375C27.5059 5.24609 27.168 5.18164 26.8047 5.18164Z" fill="#00635B"/>
<g filter="url(#filter0_d)">
<path d="M5 7H15M5.00013 12.9579L10.0001 12.979L15 13M2 10H14" stroke="#00635B" stroke-width="0.4"/>
</g>
<g filter="url(#filter1_d)">
<path d="M39.5 13L29.5 13M39 6.95793L29.5001 6.95793M42 9.99996H35.5L30.5 9.99996" stroke="#00635B" stroke-width="0.4"/>
</g>
<path d="M16 11.6259L16.7565 11.3869C16.7943 11.6259 16.8952 11.8222 17.0591 11.9758C17.2293 12.1294 17.3901 12.2233 17.5414 12.2575L17.7589 12.3087V13C17.2041 13 16.7376 12.7866 16.3593 12.3599C16.1261 12.0925 16.0063 11.8478 16 11.6259ZM16.0757 8.61309C16.0757 7.99858 16.3688 7.5377 16.9551 7.23044C17.2451 7.07681 17.513 7 17.7589 7V7.69986C17.5382 7.72262 17.3302 7.82788 17.1348 8.01565C16.9582 8.19203 16.87 8.39403 16.87 8.62162C16.87 8.96871 17.1474 9.23044 17.7021 9.40683C17.8408 9.44666 18.052 9.50071 18.3357 9.56899C18.632 9.64296 18.84 9.69986 18.9598 9.73969C19.5272 9.95021 19.8897 10.2376 20.0473 10.6017C20.1292 10.7838 20.1702 10.9886 20.1702 11.2162C20.1702 11.7112 19.959 12.1408 19.5366 12.505C19.1521 12.835 18.7171 13 18.2317 13V12.3087C18.4901 12.2973 18.7392 12.1863 18.9787 11.9758C19.2183 11.7539 19.3412 11.5007 19.3475 11.2162C19.3475 10.8179 19.0418 10.5277 18.4303 10.3457C18.2979 10.3058 18.0961 10.2575 17.8251 10.2006C17.5351 10.138 17.3396 10.0868 17.2388 10.0469C16.7029 9.8478 16.3593 9.58606 16.208 9.26174C16.1198 9.07397 16.0757 8.85775 16.0757 8.61309ZM18.2317 7.69986V7C18.7801 7 19.2372 7.21906 19.6028 7.65718C19.7857 7.87909 19.8865 8.07824 19.9054 8.25462L19.1395 8.48506C19.0512 8.08677 18.7991 7.83357 18.383 7.72546C18.2821 7.70839 18.2317 7.69986 18.2317 7.69986Z" fill="#00746B"/>
<path d="M20.6998 7L22.6194 12.9744H22.9787L23.3664 11.9075L21.7778 7H20.6998ZM23.0449 9.40683L23.5272 10.8919H23.6217C23.855 10.1636 24.0883 9.42959 24.3215 8.6899L25.6548 12.9744H26.0142L26.4019 11.9246L24.8605 7H23.792L23.0449 9.40683ZM26.1371 9.41536L26.6194 10.8919H26.7139L28 7H26.922L26.1371 9.41536Z" fill="#00746B"/>
<defs>
<filter id="filter0_d" x="0" y="6.79999" width="21.0008" height="14.4" filterUnits="userSpaceOnUse" color-interpolation-filters="sRGB">
<feFlood flood-opacity="0" result="BackgroundImageFix"/>
<feColorMatrix in="SourceAlpha" type="matrix" values="0 0 0 0 0 0 0 0 0 0 0 0 0 0 0 0 0 0 127 0"/>
<feOffset dx="2" dy="4"/>
<feGaussianBlur stdDeviation="2"/>
<feColorMatrix type="matrix" values="0 0 0 0 0 0 0 0 0 0 0 0 0 0 0 0 0 0 0.14 0"/>
<feBlend mode="normal" in2="BackgroundImageFix" result="effect1_dropShadow"/>
<feBlend mode="normal" in="SourceGraphic" in2="effect1_dropShadow" result="shape"/>
</filter>
<filter id="filter1_d" x="27.5" y="6.75793" width="20.5" height="14.4421" filterUnits="userSpaceOnUse" color-interpolation-filters="sRGB">
<feFlood flood-opacity="0" result="BackgroundImageFix"/>
<feColorMatrix in="SourceAlpha" type="matrix" values="0 0 0 0 0 0 0 0 0 0 0 0 0 0 0 0 0 0 127 0"/>
<feOffset dx="2" dy="4"/>
<feGaussianBlur stdDeviation="2"/>
<feColorMatrix type="matrix" values="0 0 0 0 0 0 0 0 0 0 0 0 0 0 0 0 0 0 0.14 0"/>
<feBlend mode="normal" in2="BackgroundImageFix" result="effect1_dropShadow"/>
<feBlend mode="normal" in="SourceGraphic" in2="effect1_dropShadow" result="shape"/>
</filter>
</defs>
</svg>
